# xmcd
#
# Track frame offsets: 
#        150
#        24006
#        39212
#        56029
#        72748
#        98027
#        116238
#        137185
#        160178
#        179026
#        197497
#        219518
#        238639
#
# Disc length: 3473 seconds
#
# Revision: 3
# Processed by: cddbd v1.5.2PL0 Copyright (c) Steve Scherf et al.
# Submitted via: ExactAudioCopyFreeDBPlugin 1.0
#
DISCID=b90d8f0d
DTITLE=UFO - One of Those Night - The Collection CD1
DYEAR=2006
DGENRE=Hard Rock
TTITLE0=Borderline
TTITLE1=Primed For Time
TTITLE2=She's The One
TTITLE3=Ain't Life Sweet
TTITLE4=Don't Want To Lose You
TTITLE5=Burnin' Fire
TTITLE6=Running Up The Highway
TTITLE7=Back Door Man
TTITLE8=One Of Those Nights
TTITLE9=Revolution
TTITLE10=Love Deadly Love
TTITLE11=Let The Good Time Roll
TTITLE12=Long Gone (Bonus Track For Japan)
EXTD=YEAR: 1992
EXTT0=
EXTT1=
EXTT2=
EXTT3=
EXTT4=
EXTT5=
EXTT6=
EXTT7=
EXTT8=
EXTT9=
EXTT10=
EXTT11=
EXTT12=
PLAYORDER=
